#!OML:ASF F:\twosubjects\two\wednesday\Session 1\rory1.ASF
:FULLY-SPECIFIED
:DEGREES
571
root 6.54703 15.4687 0.257472 -860.434 57.7328 221.114
lowerback 17.6838 1.31071 8.91188
upperback 4.36995 4.42084 6.6765
thorax -5.09804 2.37578 1.13316
lowerneck 5.13933 17.2089 9.81502
upperneck -16.1469 22.2437 -26.6281
head -1.19617 12.531 -9.53366
rclavicle 1.45113e-014 1.88845e-014
rhumerus -31.8988 -34.7961 -31.3624
rradius 23.213
rwrist -7.03022
rhand -23.117 29.2973
rfingers 7.12502
rthumb 3.33007 -0.65642
lclavicle 1.45113e-014 1.88845e-014
lhumerus -32.9726 -54.9971 51.404
lradius 106.37
lwrist 80.7587
lhand -20.8804 32.7378
lfingers 7.12502
lthumb 5.48981 62.6467
rfemur -37.1979 5.70968 21.044
rtibia 61.4594
rfoot -24.2274 0.521199
rtoes -30.278
lfemur -30.9539 10.0121 -17.097
ltibia 111.744
lfoot -0.441537 -6.88236
ltoes 2.75801
572
root 6.7159 15.5758 0.121992 -862.017 56.5514 220.147
lowerback 17.713 1.38962 9.48219
upperback 4.30835 4.6712 6.77457
thorax -5.1363 2.5005 0.869874
lowerneck 5.3391 16.7978 9.86221
upperneck -16.5951 21.6628 -26.2679
head -1.50601 12.2585 -9.5637
rclavicle 2.26615e-014 6.69904e-014
rhumerus -30.765 -34.5471 -31.6903
rradius 24.041
rwrist -8.13171
rhand -22.4602 29.4285
rfingers 7.12502
rthumb 3.96436 -0.514414
lclavicle 2.26615e-014 6.69904e-014
lhumerus -32.5238 -55.7378 52.1476
lradius 106.292
lwrist 80.2846
lhand -20.7273 33.0296
lfingers 7.12502
lthumb 5.63768 62.9346
rfemur -34.6018 6.3746 21.1947
rtibia 60.0618
rfoot -24.3259 -0.742401
rtoes -31.4911
lfemur -33.7551 11.2931 -15.8955
ltibia 114.882
lfoot -0.513451 -8.41133
ltoes 0.131558
573
root 6.86454 15.6934 0.0115495 -863.886 55.2311 218.439
lowerback 17.7937 1.29724 9.59092
upperback 3.97284 4.61486 6.78861
thorax -5.53976 2.44668 0.826143
lowerneck 5.27806 17.1829 10.5783
upperneck -15.368 22.4212 -26.9692
head -0.819974 12.5714 -9.65522
rclavicle 1.00585e-013 7.91163e-014
rhumerus -29.4322 -33.2738 -32.6405
rradius 25.0358
rwrist -9.64845
rhand -21.9725 29.5131
rfingers 7.12502
rthumb 4.43535 -0.420433
lclavicle 1.00585e-013 7.91163e-014
lhumerus -32.6244 -56.4016 53.2474
lradius 106.347
lwrist 79.6477
lhand -20.2366 33.8041
lfingers 7.12502
lthumb 6.11137 63.696
rfemur -32.367 6.93465 21.0955
rtibia 58.4657
rfoot -23.7904 -2.33949
rtoes -33.3226
lfemur -37.2006 12.1638 -15.2444
ltibia 117.678
lfoot -0.408025 -9.51132
ltoes -12.5744
574
root 7.01057 15.8268 -0.112869 -865.652 53.8939 217.021
lowerback 17.9918 1.05051 9.77514
upperback 3.92718 4.38065 6.81846
thorax -5.69773 2.3304 0.798209
lowerneck 3.26303 17.511 10.0151
upperneck -13.835 22.9815 -26.1717
head -0.137906 12.6354 -8.95727
rclavicle 6.6891e-014 2.68359e-014
rhumerus -27.3771 -31.6123 -34.1788
rradius 25.8928
rwrist -10.9218
rhand -21.4384 29.8315
rfingers 7.12502
rthumb 4.95105 -0.0906335
lclavicle 6.6891e-014 2.68359e-014
lhumerus -32.7548 -56.5859 54.2146
lradius 106.505
lwrist 79.0867
lhand -20.5479 34.3022
lfingers 7.12502
lthumb 5.81084 64.2025
rfemur -29.7988 7.48178 21.1519
rtibia 56.6242
rfoot -22.9362 -3.60349
rtoes -35.0307
lfemur -40.2959 13.1352 -14.7766
ltibia 119.906
lfoot -0.550709 -10.6832
ltoes -32.206
575
root 7.1605 15.9686 -0.261864 -866.837 52.4572 216.513
lowerback 18.1141 0.751635 10.5365
upperback 3.92841 4.19789 6.93163
thorax -5.72985 2.24582 0.53811
lowerneck 3.04301 17.7188 9.64458
upperneck -13.9126 23.2582 -26.263
head -0.110681 12.7925 -8.88509
rclavicle -3.08116e-014 -7.55382e-014
rhumerus -25.6883 -29.8107 -35.5341
rradius 26.7862
rwrist -11.398
rhand -21.46 30.1338
rfingers 7.12502
rthumb 4.93021 0.211145
lclavicle -3.08116e-014 -7.55382e-014
lhumerus -33.6008 -56.654 55.8567
lradius 106.658
lwrist 78.4717
lhand -21.0013 34.4075
lfingers 7.12502
lthumb 5.37314 64.3194
rfemur -26.8754 8.01549 21.7946
rtibia 54.517
rfoot -21.9852 -4.54106
rtoes -35.8043
lfemur -42.7736 14.571 -13.8516
ltibia 121.587
lfoot -0.982973 -11.9177
ltoes -22.7093
576
root 7.31388 16.1219 -0.439806 -867.792 51.6086 216.224
lowerback 18.1261 0.801356 11.2557
upperback 3.84927 4.41467 6.84695
thorax -5.75014 2.34105 0.00607483
lowerneck 3.78264 17.6704 9.35297
upperneck -16.0372 22.9855 -27.2057
head -0.785936 12.9213 -9.38496
rclavicle 3.10601e-014 1.86858e-014
rhumerus -25.0569 -27.708 -36.4652
rradius 28.0483
rwrist -12.2952
rhand -21.8241 30.4111
rfingers 7.12502
rthumb 4.57858 0.480556
lclavicle 3.10601e-014 1.86858e-014
lhumerus -34.4862 -56.9214 57.5896
lradius 106.673
lwrist 77.7
lhand -20.8083 34.7995
lfingers 7.12502
lthumb 5.5594 64.7066
rfemur -23.9302 8.8134 22.189
rtibia 52.1846
rfoot -20.9482 -4.61131
rtoes -33.7632
lfemur -44.942 16.3182 -13.3489
ltibia 122.766
lfoot -1.12872 -12.5821
ltoes -17.5144
577
root 7.47049 16.296 -0.648211 -868.949 51.5103 215.521
lowerback 17.9968 1.2168 11.6356
upperback 3.81858 4.94153 6.36507
thorax -5.59324 2.58043 -0.82325
lowerneck 3.64103 17.4267 10.0933
upperneck -16.089 22.7323 -27.8119
head -0.635577 12.8065 -9.65849
rclavicle -4.04527e-014 1.74931e-014
rhumerus -25.0308 -26.4083 -37.0784
rradius 29.2752
rwrist -13.2376
rhand -21.1435 30.6995
rfingers 7.12502
rthumb 5.23576 0.784191
lclavicle -4.04527e-014 1.74931e-014
lhumerus -34.5373 -57.6311 58.3883
lradius 106.441
lwrist 76.8371
lhand -20.4677 35.2823
lfingers 7.12502
lthumb 5.88827 65.1805
rfemur -21.0431 9.7753 21.8785
rtibia 49.7168
rfoot -19.6831 -4.43683
rtoes -31.6026
lfemur -46.9119 17.9466 -13.9477
ltibia 123.359
lfoot -1.00843 -13.0959
ltoes -17.0985
578
root 7.62574 16.488 -0.861859 -870.335 51.4212 214.338
lowerback 17.7057 1.78595 11.7276
upperback 3.77687 5.56773 5.78196
thorax -5.34816 2.87167 -1.60656
lowerneck 3.11887 17.1507 10.7847
upperneck -15.9873 22.4331 -28.0937
head -0.443494 12.6214 -9.79215
rclavicle 2.22639e-014 -3.39922e-014
rhumerus -25.4145 -25.8525 -37.365
rradius 30.3753
rwrist -13.7456
rhand -20.3107 30.6627
rfingers 7.12502
rthumb 6.03986 0.76883
lclavicle 2.22639e-014 -3.39922e-014
lhumerus -33.8118 -58.8589 58.754
lradius 105.94
lwrist 76.1795
lhand -19.8652 35.7337
lfingers 7.12502
lthumb 6.46991 65.6149
rfemur -18.3227 10.4825 21.3441
rtibia 47.2452
rfoot -17.9841 -4.85397
rtoes -32.0332
lfemur -48.9417 19.0501 -15.0423
ltibia 123.574
lfoot -1.59479 -13.9081
ltoes -18.9567
579
root 7.7728 16.6829 -1.06588 -871.706 50.8709 213.072
lowerback 17.3669 1.77874 11.5485
upperback 3.77777 5.45468 5.6978
thorax -5.18262 2.82476 -1.55616
lowerneck 2.77923 17.3653 9.79913
upperneck -16.4254 22.6548 -28.0251
head -0.609014 12.8001 -9.62094
rclavicle -1.38255e-013 5.1684e-014
rhumerus -24.2574 -23.7373 -38.3749
rradius 31.3456
rwrist -14.2826
rhand -20.5989 30.1317
rfingers 7.12502
rthumb 5.7616 0.230058
lclavicle -1.38255e-013 5.1684e-014
lhumerus -35.0945 -58.4233 60.9931
lradius 105.341
lwrist 75.8027
lhand -18.9298 35.7495
lfingers 7.12502
lthumb 7.37291 65.601
rfemur -15.7744 10.8253 21.0867
rtibia 44.8703
rfoot -15.8625 -5.44198
rtoes -32.7809
lfemur -51.2463 19.7362 -15.8546
ltibia 123.697
lfoot -2.59884 -14.1435
ltoes -22.8052
580
root 7.90711 16.8666 -1.25861 -872.533 49.8867 212.279
lowerback 17.0772 1.8347 11.956
upperback 3.4594 5.55493 5.54098
thorax -5.30575 2.84079 -1.95431
lowerneck 3.03419 17.2819 9.77299
upperneck -16.6935 22.555 -28.2691
head -0.713135 12.8073 -9.75125
rclavicle -1.28713e-013 6.0033e-014
rhumerus -24.256 -21.9445 -38.9777
rradius 32.3846
rwrist -14.9723
rhand -20.1625 29.9275
rfingers 7.12502
rthumb 6.18289 0.0377029
lclavicle -1.28713e-013 6.0033e-014
lhumerus -36.2282 -58.7021 63.0148
lradius 104.766
lwrist 75.2589
lhand -18.6223 34.884
lfingers 7.12502
lthumb 7.66973 64.7249
rfemur -13.5615 10.9246 21.322
rtibia 42.6504
rfoot -13.4145 -5.86479
rtoes -32.8933
lfemur -53.9079 20.3924 -16.0993
ltibia 123.798
lfoot -2.62172 -13.8161
ltoes -24.0385
581
root 8.02313 17.0495 -1.4336 -872.946 48.7299 211.407
lowerback 16.6673 2.01497 12.2807
upperback 3.01092 5.77676 5.31782
thorax -5.48809 2.90086 -2.39604
lowerneck 2.84788 17.1901 9.91607
upperneck -16.6722 22.4779 -28.4042
head -0.651622 12.769 -9.79414
rclavicle 6.4605e-014 1.11319e-014
rhumerus -24.4375 -21.5926 -39.1396
rradius 33.0009
rwrist -15.6316
rhand -17.6263 31.0118
rfingers 7.12502
rthumb 8.63099 1.20825
lclavicle 6.4605e-014 1.11319e-014
lhumerus -36.9569 -59.1238 64.9272
lradius 104.052
lwrist 74.0458
lhand -18.6515 34.1802
lfingers 7.12502
lthumb 7.64151 64.0222
rfemur -12.0847 10.8374 21.5062
rtibia 40.6002
rfoot -10.6249 -6.07178
rtoes -32.9364
lfemur -57.4125 20.3328 -16.5859
ltibia 123.785
lfoot -2.01659 -13.3808
ltoes -19.9013
582
root 8.12642 17.2505 -1.61014 -873.609 47.8412 210.079
lowerback 16.3417 2.01127 12.0411
upperback 2.58934 5.6693 5.1529
thorax -5.78485 2.80312 -2.41539
lowerneck 2.76001 17.3573 9.35133
upperneck -16.7315 22.7086 -28.4023
head -0.686286 12.9172 -9.69187
rclavicle -9.23355e-014 2.38542e-014
rhumerus -23.8002 -20.5896 -39.6149
rradius 33.3776
rwrist -16.6562
rhand -15.4385 32.0225
rfingers 7.12502
rthumb 10.7418 2.31713
lclavicle -9.23355e-014 2.38542e-014
lhumerus -38.534 -58.4236 67.5483
lradius 103.267
lwrist 72.5578
lhand -18.4606 33.4015
lfingers 7.12502
lthumb 7.82581 63.2366
rfemur -10.8845 10.7444 21.2081
rtibia 38.6648
rfoot -7.72026 -5.96034
rtoes -32.3466
lfemur -60.93 19.436 -17.6199
ltibia 123.373
lfoot -1.31199 -12.621
ltoes -13.4576
583
root 8.23588 17.464 -1.82573 -874.843 47.512 208.255
lowerback 15.911 1.83422 11.4083
upperback 2.10943 5.23765 4.96006
thorax -6.15406 2.54581 -2.1856
lowerneck 4.27834 17.59 8.37371
upperneck -17.4807 22.9195 -28.5035
head -1.23135 13.2029 -9.82601
rclavicle -7.03698e-014 -8.94531e-015
rhumerus -22.8589 -18.115 -40.4486
rradius 33.698
rwrist -17.6048
rhand -15.0667 32.0217
rfingers 7.12502
rthumb 11.1004 2.33531
lclavicle -7.03698e-014 -8.94531e-015
lhumerus -41.664 -56.898 71.2989
lradius 102.389
lwrist 71.0597
lhand -18.3332 32.0157
lfingers 7.12502
lthumb 7.94874 61.8462
rfemur -9.44899 10.7155 20.2168
rtibia 36.8312
rfoot -4.74755 -5.58428
rtoes -30.5816
lfemur -63.2662 18.1293 -19.1471
ltibia 122.323
lfoot -0.86426 -11.6068
ltoes -9.82946
